HIERARCHY
ROOT root
{
	OFFSET 0.000000 0.000000 0.000000
	CHANNELS 6 Xposition Yposition Zposition Zrotation Yrotation Xrotation
	JOINT lhip
	{
		OFFSET 0.058581 -0.082280 -0.017664
		CHANNELS 3 Zrotation Yrotation Xrotation
		JOINT lknee
		{
			OFFSET 0.043451 -0.386469 0.008037
			CHANNELS 3 Zrotation Yrotation Xrotation
			JOINT lankle
			{
				OFFSET -0.014790 -0.426874 -0.037428
				CHANNELS 3 Zrotation Yrotation Xrotation
				JOINT ltoe
				{
					OFFSET 0.041054 -0.060286 0.122042
					CHANNELS 3 Zrotation Yrotation Xrotation
					End Site
					{
						OFFSET 0.000000 0.000000 0.000000
					}
				}
			}
		}
	}
	JOINT rhip
	{
		OFFSET -0.060310 -0.090513 -0.013543
		CHANNELS 3 Zrotation Yrotation Xrotation
		JOINT rknee
		{
			OFFSET -0.043257 -0.383688 -0.004843
			CHANNELS 3 Zrotation Yrotation Xrotation
			JOINT rankle
			{
				OFFSET 0.019056 -0.420046 -0.034562
				CHANNELS 3 Zrotation Yrotation Xrotation
				JOINT rtoe
				{
					OFFSET -0.034840 -0.062106 0.130323
					CHANNELS 3 Zrotation Yrotation Xrotation
					End Site
					{
						OFFSET 0.000000 0.000000 0.000000
					}
				}
			}
		}
	}
	JOINT lowerback
	{
		OFFSET 0.004439 0.124404 -0.038385
		CHANNELS 3 Zrotation Yrotation Xrotation
		JOINT upperback
		{
			OFFSET 0.004488 0.137956 0.026820
			CHANNELS 3 Zrotation Yrotation Xrotation
			JOINT chest
			{
				OFFSET -0.002265 0.056032 0.002855
				CHANNELS 3 Zrotation Yrotation Xrotation
				JOINT lowerneck
				{
					OFFSET -0.013390 0.211636 -0.033468
					CHANNELS 3 Zrotation Yrotation Xrotation
					JOINT upperneck
					{
						OFFSET 0.010113 0.088937 0.050410
						CHANNELS 3 Zrotation Yrotation Xrotation
						End Site
						{
							OFFSET 0.000000 0.000000 0.000000
						}
					}
				}
				JOINT lclavicle
				{
					OFFSET 0.071702 0.114000 -0.018898
					CHANNELS 3 Zrotation Yrotation Xrotation
					JOINT lshoulder
					{
						OFFSET 0.122921 0.045205 -0.019046
						CHANNELS 3 Zrotation Yrotation Xrotation
						JOINT lelbow
						{
							OFFSET 0.255332 -0.015649 -0.022946
							CHANNELS 3 Zrotation Yrotation Xrotation
							JOINT lwrist
							{
								OFFSET 0.265709 0.012698 -0.007375
								CHANNELS 3 Zrotation Yrotation Xrotation
								End Site
								{
									OFFSET 0.000000 0.000000 0.000000
								}
							}
						}
					}
				}
				JOINT rclavicle
				{
					OFFSET -0.082954 0.112472 -0.023707
					CHANNELS 3 Zrotation Yrotation Xrotation
					JOINT rshoulder
					{
						OFFSET -0.113228 0.046853 -0.008472
						CHANNELS 3 Zrotation Yrotation Xrotation
						JOINT relbow
						{
							OFFSET -0.260127 -0.014369 -0.031269
							CHANNELS 3 Zrotation Yrotation Xrotation
							JOINT rwrist
							{
								OFFSET -0.269108 0.006794 -0.006027
								CHANNELS 3 Zrotation Yrotation Xrotation
								End Site
								{
									OFFSET 0.000000 0.000000 0.000000
								}
							}
						}
					}
				}
			}
		}
	}
}
MOTION
Frames: 16
Frame Time: 0.033333
-0.124978 0.636556 1.011009 -1.963217 0.165106 87.640808 -1.839657 1.778806 3.465694 -1.396102 -2.264714 5.232970 5.058488 12.433082 -13.835403 0.000000 -0.000000 0.000000 2.312848 -2.113989 9.055010 0.805088 8.479495 3.288144 4.528535 0.671022 -12.626896 0.000000 -0.000000 0.000000 0.282842 1.715204 3.008068 -1.141212 -2.999185 -0.795853 -1.592533 -0.972518 2.974587 2.573349 3.313488 -4.201360 1.980147 1.100954 1.236312 -30.094976 1.310643 0.223653 -60.116859 -5.912967 10.065743 9.907320 -30.933679 4.858894 1.448923 -4.705265 -2.624831 25.968104 0.994997 3.542918 58.554742 -0.056161 14.349142 -14.150990 26.796774 0.117193 5.193825 2.397320 -4.053936 
-0.120509 0.630807 1.009800 -2.099426 0.244106 87.623724 -2.256670 1.193587 3.274923 -1.378108 -2.611756 6.482176 5.685025 13.206636 -14.869883 0.000000 -0.000000 0.000000 2.566762 -1.272787 6.511547 1.199627 8.228606 8.919250 4.237249 -0.273256 -15.022628 0.000000 -0.000000 0.000000 -0.459206 1.482174 2.937576 -0.809325 -3.117455 -0.844064 -1.609996 -1.369956 3.195921 2.935318 4.156092 -4.204601 1.402480 1.118501 1.721419 -29.462396 0.496346 0.482030 -59.642763 -6.232222 11.392654 7.630470 -33.732922 8.145183 1.086060 -5.130392 -1.808732 25.846400 1.308801 3.004161 58.818451 0.463942 14.580283 -14.760698 27.752748 -0.066033 5.394072 2.368826 -4.517726 
-0.115885 0.625755 1.008452 -2.369105 0.102395 87.237643 -2.783026 1.008954 3.211598 -1.626687 -3.065671 8.115697 6.501359 14.025437 -15.845153 0.000000 -0.000000 0.000000 2.374479 -0.600969 2.950548 2.138555 7.374542 17.061503 3.901257 -0.882771 -17.134329 0.000000 -0.000000 0.000000 -1.404236 1.071733 3.729524 -0.515551 -3.062220 -1.030385 -1.666645 -1.691478 3.447044 3.420468 5.130118 -4.580467 0.916246 1.287553 1.960061 -28.668970 -0.153395 0.600303 -59.067955 -6.494375 12.248262 5.901464 -36.598140 10.735743 0.598042 -5.422812 -1.771365 26.032501 1.591248 2.489785 58.777548 1.175464 14.670642 -15.280865 29.253363 -0.650127 5.615956 2.500275 -4.752322 
-0.110095 0.618694 1.006810 -2.980671 -0.040045 86.180071 -3.404381 1.391510 4.202381 -1.787158 -3.477944 9.382081 7.411431 15.023810 -16.750787 0.000000 -0.000000 0.000000 1.838995 0.367098 -1.671706 3.270771 5.454850 28.452239 4.650164 -1.176604 -17.007854 0.000000 -0.000000 0.000000 -2.384378 0.025197 5.462655 -0.309973 -2.669562 -0.940413 -1.658123 -1.818277 3.769410 3.834469 6.243178 -5.329579 0.243218 1.831666 1.977842 -27.948282 -0.749597 0.638447 -58.279744 -6.768934 12.522546 4.727499 -39.627835 11.803121 0.368390 -5.600868 -2.344905 26.512819 2.076030 2.036776 58.452769 2.150398 14.925711 -16.264612 31.788052 -1.855871 5.494867 3.098564 -4.580800 
-0.106499 0.614247 1.006470 -3.374461 -0.040443 85.376685 -3.772547 1.707008 5.223664 -1.687232 -3.819728 9.735487 7.866081 15.721931 -17.117725 0.000000 -0.000000 0.000000 1.497991 1.029419 -4.488748 3.569190 4.105963 35.186631 5.620015 -1.315509 -15.196027 0.000000 -0.000000 0.000000 -2.779416 -0.811426 6.769198 -0.197184 -2.378300 -0.802203 -1.597035 -1.845345 3.822136 3.819319 6.777710 -5.609589 -0.167304 2.463296 1.851380 -27.805216 -1.127563 0.699794 -57.787925 -6.929593 12.350866 4.681248 -40.616188 11.351041 0.336358 -5.625449 -2.530851 26.636888 2.465325 1.974556 58.322183 2.696471 15.163744 -16.931399 33.427175 -2.950693 5.294820 3.343339 -4.625840 
-0.102292 0.607164 1.006712 -3.503117 0.161808 84.291780 -3.888199 2.194420 6.760190 -1.612887 -4.563507 10.091167 8.305278 16.303697 -17.604907 0.000000 -0.000000 0.000000 1.154256 1.525553 -7.923390 3.507686 2.278444 42.604818 6.089082 -2.058142 -13.549625 0.000000 -0.000000 0.000000 -3.067642 -1.864056 8.313948 0.047959 -2.277442 -0.512752 -1.466792 -2.105782 3.858071 3.705099 7.389869 -5.713569 -0.678896 3.417204 2.061595 -27.653754 -1.663336 0.902550 -57.411321 -7.105175 11.921170 5.307149 -40.672389 10.231063 0.351543 -5.418779 -2.633748 26.813775 2.929712 2.042932 57.997732 3.290636 15.425572 -17.780206 35.559594 -4.090031 5.171890 3.674474 -4.466656 
-0.098558 0.599168 1.007287 -3.191561 0.631372 83.487917 -3.636975 2.644577 8.130538 -1.488575 -5.396637 10.200623 8.580939 16.607786 -17.970894 0.000000 -0.000000 0.000000 0.888738 1.779924 -11.174324 2.954117 0.332014 47.670588 5.799193 -3.235613 -12.847642 0.000000 -0.000000 0.000000 -2.953712 -2.821186 9.406042 0.373158 -2.331145 -0.395570 -1.298903 -2.550872 3.950286 3.526087 7.862482 -5.268738 -1.186647 4.185934 2.588466 -27.561820 -2.167517 1.221932 -57.342503 -7.411565 11.276305 6.187381 -39.150863 8.964889 0.236566 -5.119954 -2.395452 26.862218 3.002089 2.205092 57.709056 3.672021 15.573680 -18.534219 37.417952 -4.855162 5.079805 3.933009 -4.378383 
-0.095203 0.589167 1.007995 -2.543262 1.304720 82.777832 -3.128977 3.127859 9.819522 -1.207856 -6.419312 9.753400 8.683207 16.671770 -18.189940 0.000000 -0.000000 0.000000 0.589150 1.821591 -13.991101 2.302861 -1.473320 50.525197 5.018646 -4.747547 -10.927238 0.000000 -0.000000 0.000000 -2.547359 -3.765595 10.120221 0.754566 -2.371989 -0.203298 -1.086626 -3.042973 3.951634 3.204879 8.018360 -4.412737 -1.365119 4.938719 3.380303 -27.621046 -2.672953 1.559835 -57.394353 -7.766730 10.693124 7.140216 -36.324201 7.709582 -0.009686 -4.682263 -1.839770 26.845131 2.782405 2.404260 57.467639 3.698624 15.636778 -19.199831 38.683800 -5.668875 4.930718 4.197032 -4.470261 
-0.092210 0.577874 1.008616 -1.957736 1.897121 82.070733 -2.605513 3.776641 11.812107 -0.850270 -7.377349 8.863239 8.569881 16.606554 -18.488587 0.000000 -0.000000 0.000000 0.121081 1.791642 -16.411810 1.481587 -2.994642 51.292600 4.803126 -6.082220 -9.767141 0.000000 -0.000000 0.000000 -2.190087 -4.605360 10.816035 1.086339 -2.308991 -0.121100 -0.828255 -3.387799 3.887348 3.119794 8.191495 -3.338035 -1.516456 5.525683 4.088734 -27.587344 -2.936157 1.851802 -57.552714 -8.038505 10.182710 7.824568 -33.093156 6.964446 -0.318237 -4.347787 -0.989256 26.797098 2.433608 2.671263 57.361133 3.556697 15.610238 -19.758709 39.062011 -6.376283 4.691772 4.268520 -4.422044 
-0.089437 0.562750 1.007984 -1.262958 2.513012 81.410041 -1.798032 4.686755 14.250183 -0.614603 -8.628532 7.508560 8.238816 16.406570 -18.974058 0.000000 -0.000000 0.000000 -0.663208 2.053422 -18.931324 1.005055 -4.401919 49.563437 4.977505 -7.013696 -9.228609 0.000000 -0.000000 0.000000 -1.818616 -5.589213 11.478522 1.322683 -2.110015 -0.046136 -0.487979 -3.667840 3.906397 3.251858 8.471512 -2.332131 -1.623228 5.850359 4.668034 -27.445152 -2.803154 2.182711 -57.576320 -8.372820 9.572122 8.548291 -29.860631 6.158660 -0.731296 -3.628931 -0.497903 26.823688 1.878505 2.766877 57.456290 3.219287 15.547496 -20.011198 38.416771 -6.668102 4.616549 4.138093 -4.419512 
-0.087954 0.549948 1.006118 -0.902632 2.812610 81.152800 -1.196048 5.298124 16.058283 -0.591545 -9.369465 6.247314 7.927094 16.172334 -19.365094 0.000000 -0.000000 0.000000 -1.161670 2.108717 -20.757154 0.606885 -4.820349 46.193161 5.039573 -7.479956 -7.796210 0.000000 -0.000000 0.000000 -1.595276 -6.103699 11.792347 1.403869 -1.948572 0.077446 -0.270717 -3.833262 3.936387 3.287588 8.576319 -2.142069 -1.530769 5.935966 4.862243 -27.364821 -2.280463 2.443670 -57.263519 -8.418647 9.264158 8.859741 -28.499251 5.806688 -0.860243 -3.428957 -0.237103 27.050398 1.372221 2.706279 57.577824 3.065605 15.552014 -19.875386 36.808483 -6.682097 4.396212 3.963892 -4.177332 
-0.086828 0.536370 1.003392 -0.435988 3.056603 81.039814 -0.534495 5.980742 17.661809 -0.548446 -10.026731 5.138406 7.412851 15.656911 -19.871886 0.000000 -0.000000 0.000000 -1.581457 1.919502 -22.074031 0.356724 -4.848452 41.356355 5.337159 -7.362592 -7.201719 0.000000 -0.000000 0.000000 -1.292076 -6.493486 12.127408 1.446234 -1.946288 0.116150 -0.107421 -3.986349 4.039132 3.297212 8.741081 -2.281910 -1.597149 5.804532 4.523869 -27.303609 -1.311860 2.596760 -56.709870 -8.289485 8.972634 8.697152 -28.248449 5.982559 -0.842246 -3.838652 -0.280210 27.203443 0.907578 2.447953 57.803434 2.793462 15.424747 -19.389335 34.599243 -6.359722 4.118562 3.857910 -4.132781 
-0.086078 0.522008 1.000148 -0.141803 3.157468 80.936420 0.178848 6.739261 19.322786 -0.671462 -10.693315 4.089705 6.969782 15.031039 -20.481531 0.000000 -0.000000 0.000000 -1.951905 1.599268 -22.706473 0.500341 -4.132194 35.359546 5.882407 -6.581251 -6.521581 0.000000 -0.000000 0.000000 -0.988137 -6.730252 12.390183 1.387954 -1.968069 0.269603 -0.041152 -4.012062 4.118815 3.262257 8.846144 -2.434059 -1.593523 5.585563 3.901594 -27.165792 -0.186934 2.713305 -56.089476 -7.913634 8.673025 8.313459 -28.717085 6.199506 -0.725452 -4.248082 -0.604262 27.423251 0.544179 2.356303 57.989976 2.486121 15.146078 -18.742826 32.072886 -5.828818 4.069196 3.339231 -3.855299 
-0.085793 0.507133 0.996015 -0.049137 3.072404 81.231911 0.626995 7.335873 20.453325 -0.840662 -11.261585 3.230816 6.536201 14.640061 -20.841646 0.000000 -0.000000 0.000000 -2.142351 1.185956 -23.488310 1.024500 -2.292379 29.168146 6.664465 -5.199653 -4.948364 0.000000 -0.000000 0.000000 -0.778451 -6.619533 12.181649 1.373696 -1.917976 0.482006 0.037793 -3.963079 4.222442 3.094145 8.839828 -2.804589 -1.515943 5.304011 3.394139 -27.106013 0.838915 2.826142 -55.552722 -7.508871 8.548720 8.109024 -29.167639 6.155100 -0.443239 -4.859351 -1.026888 27.675311 0.108395 2.407649 57.985077 2.134494 14.886745 -18.105282 29.424400 -5.489995 4.065172 2.849204 -3.764369 
-0.086177 0.491694 0.991702 0.068030 2.905449 81.688616 0.950575 7.804240 21.228305 -0.977040 -11.868718 2.809038 6.116258 14.287749 -21.193120 0.000000 -0.000000 0.000000 -2.112472 0.966725 -24.061332 1.257239 0.218983 23.315355 7.893314 -3.570590 -3.363469 0.000000 -0.000000 0.000000 -0.653963 -6.372079 11.898156 1.413927 -1.865829 0.609885 0.140568 -3.833215 4.342638 2.942158 8.842479 -3.215993 -1.405619 4.948996 2.974481 -27.065860 1.895574 2.697291 -55.205516 -7.117017 8.492360 7.972819 -29.214548 6.014284 -0.102225 -5.255917 -1.268300 27.918912 -0.438778 2.479681 57.851113 1.604699 14.726558 -17.485919 26.965134 -5.224536 4.068388 2.587700 -3.628727 
-0.087495 0.475033 0.987897 0.366172 2.844551 82.027576 1.406227 7.973329 22.000602 -1.175275 -12.433968 2.839380 5.699197 14.024531 -21.705444 0.000000 -0.000000 0.000000 -1.962932 1.101405 -24.205142 1.026635 1.712083 18.649277 8.690398 -2.476753 -2.459303 0.000000 -0.000000 0.000000 -0.458733 -6.273039 11.808048 1.445912 -1.759529 0.667498 0.249858 -3.647539 4.384492 2.775219 8.746154 -3.415701 -1.215903 4.586747 2.516396 -27.056600 2.821236 2.576817 -55.046251 -6.740376 8.337441 8.085354 -28.771382 5.751017 0.050519 -5.432188 -1.346589 28.065338 -1.056241 2.569497 57.862790 0.780282 14.443850 -17.081157 24.997738 -4.971501 4.257580 2.178444 -3.658512 
